<svg width="68" height="68" viewBox="0 0 68 68" fill="none" xmlns="http://www.w3.org/2000/svg">
<circle cx="34" cy="34" r="33" stroke="#EEF0F3" stroke-width="2"/>
<circle cx="34" cy="34" r="31" fill="#EEF0F3" stroke="white" stroke-width="2"/>
<path d="M31.6611 26.0843C37.3875 28.1053 43.563 27.9931 49.2332 25.8036C49.2893 23.5018 48.6718 21.2 47.6051 19.1228L47.0437 18C46.8753 18.0561 46.6507 18.1684 46.5384 18.2807C41.3735 20.7509 35.5348 21.0878 30.0892 19.1228C26.2716 17.7754 22.1172 18.1123 18.5242 19.9088L17.4014 20.4702C17.4575 20.6386 17.5698 20.8632 17.6821 20.9755C18.3558 22.4351 18.9172 24.0071 19.3102 25.6351C23.24 24.5123 27.619 24.6246 31.6611 26.0843Z" fill="#3B82F6"/>
<path d="M17.6807 42.9826L18.9157 42.3089C21.4183 41.0576 24.1792 40.4519 26.9185 40.5318C28.6036 40.5809 30.2806 40.8895 31.8843 41.4668C32.4067 41.6522 32.9307 41.8223 33.4562 41.9775V47.9616C31.2825 47.5575 29.0821 47.4997 26.9185 47.7783C24.6741 48.0672 22.4694 48.718 20.3754 49.7195C20.2631 49.8318 20.0386 49.9441 19.8701 50.0002L19.3087 48.8774C18.3543 47.0247 17.7929 45.0037 17.6807 42.9826Z" fill="#3B82F6"/>
<path d="M18.3564 37.8172C23.1284 35.8523 28.4618 35.6839 33.346 37.4242C37.8373 38.9962 42.6093 39.2769 47.1005 38.2664C47.0444 35.74 47.3812 33.2698 48.2795 30.7996C42.3847 32.54 36.0408 32.3716 30.146 30.2944C26.7776 29.0593 23.0723 29.0593 19.7038 30.1821C19.76 32.5961 19.3109 35.0663 18.4687 37.4804C18.4687 37.4804 18.4126 37.6488 18.3564 37.8172Z" fill="#3B82F6"/>
</svg>
