<svg width="48" height="48" viewBox="0 0 48 48" fill="none" xmlns="http://www.w3.org/2000/svg">
<path d="M21.9391 14.9191C28.5083 17.2376 35.5928 17.1088 42.0976 14.597C42.162 11.9565 41.4536 9.31587 40.2299 6.93291L39.5859 5.64482C39.3926 5.70923 39.135 5.83804 39.0062 5.96685C33.081 8.80065 26.383 9.18707 20.1357 6.93292C15.7562 5.38721 10.9903 5.77364 6.86843 7.83458L5.58034 8.47862C5.64474 8.67184 5.77357 8.92944 5.90237 9.05825C6.67523 10.7328 7.31926 12.5361 7.77009 14.4038C12.2784 13.1157 17.3019 13.2445 21.9391 14.9191Z" fill="#22C55E"/>
<path d="M5.90202 34.3048L7.31891 33.5319C10.1899 32.0964 13.3571 31.4016 16.4996 31.4932C18.4328 31.5495 20.3566 31.9035 22.1963 32.5658C22.7956 32.7785 23.3968 32.9737 23.9996 33.1517L23.9996 40.0166C21.506 39.553 18.9817 39.4868 16.4996 39.8063C13.9249 40.1378 11.3956 40.8844 8.99343 42.0333C8.86462 42.1621 8.607 42.2909 8.41378 42.3553L7.76974 41.0672C6.67486 38.9419 6.03083 36.6233 5.90202 34.3048Z" fill="#22C55E"/>
<path d="M6.6754 28.3793C12.1498 26.1252 18.2682 25.932 23.8714 27.9285C29.0237 29.7318 34.4981 30.0538 39.6505 28.8946C39.5861 25.9964 39.9725 23.1626 41.003 20.3288C34.2405 22.3253 26.9628 22.1321 20.2003 19.7491C16.3361 18.3322 12.0854 18.3322 8.2211 19.6203C8.28551 22.3897 7.77029 25.2235 6.80422 27.9929C6.80422 27.9929 6.7398 28.1861 6.6754 28.3793Z" fill="#22C55E"/>
</svg>
