<svg width="79" height="48" viewBox="0 0 79 48" fill="none" xmlns="http://www.w3.org/2000/svg">
<g clip-path="url(#clip0_2891_20680)">
<path d="M77.5993 48C78.3729 48 79 47.3759 79 46.6061C79 45.8362 78.3729 45.2122 77.5993 45.2122C76.8256 45.2122 76.1985 45.8362 76.1985 46.6061C76.1985 47.3759 76.8256 48 77.5993 48Z" fill="#22C55E"/>
<path d="M64.8968 48C65.6704 48 66.2976 47.3759 66.2976 46.6061C66.2976 45.8362 65.6704 45.2122 64.8968 45.2122C64.1232 45.2122 63.4961 45.8362 63.4961 46.6061C63.4961 47.3759 64.1232 48 64.8968 48Z" fill="#22C55E"/>
<path d="M52.1997 48C52.478 48.0011 52.7504 47.9199 52.9823 47.7668C53.2143 47.6137 53.3953 47.3955 53.5026 47.1399C53.6098 46.8844 53.6384 46.6029 53.5848 46.3311C53.5311 46.0594 53.3976 45.8096 53.2012 45.6134C53.0048 45.4172 52.7542 45.2834 52.4813 45.2289C52.2084 45.1745 51.9255 45.2019 51.6682 45.3077C51.411 45.4134 51.1911 45.5928 51.0363 45.823C50.8816 46.0532 50.799 46.3239 50.799 46.6008C50.7989 46.971 50.9464 47.3261 51.2089 47.5883C51.4715 47.8506 51.8277 47.9986 52.1997 48Z" fill="#22C55E"/>
<path d="M39.5027 48C39.7808 48 40.0526 47.918 40.2839 47.7642C40.5151 47.6105 40.6953 47.392 40.8017 47.1363C40.9081 46.8806 40.9359 46.5993 40.8817 46.3279C40.8274 46.0565 40.6935 45.8072 40.4969 45.6115C40.3002 45.4158 40.0497 45.2825 39.777 45.2285C39.5042 45.1746 39.2215 45.2023 38.9646 45.3082C38.7076 45.4141 38.4881 45.5934 38.3336 45.8235C38.1791 46.0536 38.0966 46.3241 38.0966 46.6008C38.0966 46.7846 38.1329 46.9666 38.2036 47.1363C38.2742 47.3061 38.3778 47.4603 38.5084 47.5902C38.639 47.7201 38.794 47.8232 38.9646 47.8936C39.1352 47.9639 39.318 48 39.5027 48Z" fill="#22C55E"/>
<path d="M26.8003 48C27.5739 48 28.201 47.3759 28.201 46.6061C28.201 45.8362 27.5739 45.2122 26.8003 45.2122C26.0266 45.2122 25.3995 45.8362 25.3995 46.6061C25.3995 47.3759 26.0266 48 26.8003 48Z" fill="#22C55E"/>
<path d="M14.6392 47.834C15.3547 47.5412 15.6963 46.7267 15.4021 46.0147C15.1079 45.3027 14.2894 44.9629 13.5739 45.2556C12.8584 45.5483 12.5169 46.3628 12.811 47.0748C13.1052 47.7868 13.9237 48.1267 14.6392 47.834Z" fill="#22C55E"/>
<path d="M1.40608 45.228C1.12753 45.227 0.854986 45.3083 0.622947 45.4616C0.390909 45.615 0.209861 45.8335 0.102782 46.0893C-0.00429717 46.3452 -0.0325881 46.627 0.0214962 46.8989C0.0755805 47.1708 0.20959 47.4206 0.406552 47.6166C0.603514 47.8126 0.854518 47.9459 1.12776 47.9998C1.40101 48.0536 1.68419 48.0254 1.94133 47.9189C2.19848 47.8123 2.41803 47.6322 2.57213 47.4013C2.72622 47.1704 2.8079 46.8991 2.80685 46.622C2.80545 46.2527 2.65744 45.8989 2.39505 45.6378C2.13265 45.3767 1.77715 45.2294 1.40608 45.228Z" fill="#22C55E"/>
<path d="M77.5993 36.6956C78.3729 36.6956 79 36.0716 79 35.3017C79 34.5319 78.3729 33.9078 77.5993 33.9078C76.8256 33.9078 76.1985 34.5319 76.1985 35.3017C76.1985 36.0716 76.8256 36.6956 77.5993 36.6956Z" fill="#22C55E"/>
<path d="M64.8968 36.6956C65.6704 36.6956 66.2976 36.0716 66.2976 35.3017C66.2976 34.5319 65.6704 33.9078 64.8968 33.9078C64.1232 33.9078 63.4961 34.5319 63.4961 35.3017C63.4961 36.0716 64.1232 36.6956 64.8968 36.6956Z" fill="#22C55E"/>
<path d="M52.1997 36.6957C52.4783 36.6967 52.7509 36.6154 52.9829 36.462C53.215 36.3087 53.396 36.0902 53.5031 35.8343C53.6102 35.5785 53.6385 35.2967 53.5844 35.0248C53.5303 34.7529 53.3963 34.5031 53.1993 34.3071C53.0024 34.1111 52.7513 33.9777 52.478 33.9239C52.2048 33.8701 51.9217 33.8982 51.6645 34.0048C51.4074 34.1114 51.1878 34.2915 51.0337 34.5224C50.8797 34.7533 50.7979 35.0246 50.799 35.3017C50.8004 35.671 50.9484 36.0247 51.2108 36.2858C51.4732 36.5469 51.8287 36.6943 52.1997 36.6957Z" fill="#22C55E"/>
<path d="M39.5027 36.6957C39.781 36.6957 40.053 36.6135 40.2844 36.4595C40.5157 36.3055 40.696 36.0866 40.8022 35.8307C40.9085 35.5747 40.936 35.2931 40.8813 35.0215C40.8266 34.75 40.6922 34.5007 40.495 34.3052C40.2978 34.1097 40.0468 33.9769 39.7737 33.9235C39.5006 33.8701 39.2177 33.8986 38.9609 34.0053C38.7041 34.112 38.4849 34.2922 38.331 34.523C38.1771 34.7538 38.0955 35.0248 38.0966 35.3017C38.0966 35.4852 38.133 35.6669 38.2037 35.8364C38.2745 36.0058 38.3781 36.1597 38.5087 36.2893C38.6394 36.4188 38.7944 36.5213 38.965 36.5911C39.1355 36.6608 39.3183 36.6964 39.5027 36.6957Z" fill="#22C55E"/>
<path d="M26.8003 36.6956C27.5739 36.6956 28.201 36.0716 28.201 35.3017C28.201 34.5319 27.5739 33.9078 26.8003 33.9078C26.0266 33.9078 25.3995 34.5319 25.3995 35.3017C25.3995 36.0716 26.0266 36.6956 26.8003 36.6956Z" fill="#22C55E"/>
<path d="M14.6405 36.5336C15.356 36.2409 15.6976 35.4264 15.4034 34.7144C15.1092 34.0024 14.2907 33.6625 13.5752 33.9552C12.8597 34.248 12.5181 35.0625 12.8123 35.7745C13.1065 36.4865 13.925 36.8264 14.6405 36.5336Z" fill="#22C55E"/>
<path d="M1.40606 36.6957C1.68438 36.6957 1.95643 36.6135 2.18777 36.4595C2.41911 36.3055 2.59934 36.0866 2.7056 35.8307C2.81187 35.5747 2.83944 35.2931 2.78475 35.0215C2.73007 34.75 2.59557 34.5007 2.3984 34.3052C2.20123 34.1097 1.95022 33.9769 1.67712 33.9235C1.40403 33.8701 1.12116 33.8986 0.864331 34.0053C0.607499 34.112 0.388242 34.2922 0.234381 34.523C0.0805196 34.7538 -0.00107077 35.0248 -2.05042e-05 35.3017C-2.18271e-05 35.4852 0.0363819 35.6669 0.107109 35.8364C0.177835 36.0058 0.281538 36.1597 0.412174 36.2893C0.542809 36.4188 0.697849 36.5213 0.868411 36.5911C1.03897 36.6608 1.22167 36.6964 1.40606 36.6957Z" fill="#22C55E"/>
<path d="M77.5993 25.3913C78.3729 25.3913 79 24.7672 79 23.9974C79 23.2275 78.3729 22.6035 77.5993 22.6035C76.8256 22.6035 76.1985 23.2275 76.1985 23.9974C76.1985 24.7672 76.8256 25.3913 77.5993 25.3913Z" fill="#22C55E"/>
<path d="M64.8968 25.3913C65.6704 25.3913 66.2976 24.7672 66.2976 23.9974C66.2976 23.2275 65.6704 22.6035 64.8968 22.6035C64.1232 22.6035 63.4961 23.2275 63.4961 23.9974C63.4961 24.7672 64.1232 25.3913 64.8968 25.3913Z" fill="#22C55E"/>
<path d="M52.1997 25.3966C52.478 25.3976 52.7504 25.3165 52.9823 25.1634C53.2143 25.0103 53.3953 24.7921 53.5026 24.5365C53.6098 24.2809 53.6384 23.9994 53.5848 23.7277C53.5311 23.4559 53.3976 23.2061 53.2012 23.0099C53.0048 22.8137 52.7542 22.6799 52.4813 22.6255C52.2084 22.5711 51.9255 22.5985 51.6682 22.7042C51.411 22.81 51.1911 22.9893 51.0363 23.2195C50.8816 23.4497 50.799 23.7204 50.799 23.9974C50.7989 24.3676 50.9464 24.7226 51.2089 24.9849C51.4715 25.2471 51.8277 25.3952 52.1997 25.3966Z" fill="#22C55E"/>
<path d="M39.5027 25.3966C39.7808 25.3966 40.0526 25.3145 40.2839 25.1608C40.5151 25.007 40.6953 24.7885 40.8017 24.5328C40.9081 24.2772 40.9359 23.9958 40.8817 23.7244C40.8274 23.453 40.6935 23.2037 40.4969 23.008C40.3002 22.8123 40.0497 22.6791 39.777 22.6251C39.5042 22.5711 39.2215 22.5988 38.9646 22.7047C38.7076 22.8106 38.4881 22.99 38.3336 23.22C38.1791 23.4501 38.0966 23.7206 38.0966 23.9974C38.0966 24.1811 38.1329 24.3631 38.2036 24.5328C38.2742 24.7026 38.3778 24.8568 38.5084 24.9868C38.639 25.1167 38.794 25.2198 38.9646 25.2901C39.1352 25.3604 39.318 25.3966 39.5027 25.3966Z" fill="#22C55E"/>
<path d="M26.8003 25.3913C27.5739 25.3913 28.201 24.7672 28.201 23.9974C28.201 23.2275 27.5739 22.6035 26.8003 22.6035C26.0266 22.6035 25.3995 23.2275 25.3995 23.9974C25.3995 24.7672 26.0266 25.3913 26.8003 25.3913Z" fill="#22C55E"/>
<path d="M14.6397 25.2337C15.3552 24.9409 15.6968 24.1264 15.4026 23.4144C15.1084 22.7024 14.2899 22.3626 13.5744 22.6553C12.8589 22.948 12.5173 23.7625 12.8115 24.4745C13.1057 25.1865 13.9242 25.5264 14.6397 25.2337Z" fill="#22C55E"/>
<path d="M1.40605 25.3966C1.68415 25.3966 1.95601 25.3145 2.18724 25.1608C2.41847 25.007 2.59865 24.7885 2.70507 24.5328C2.8115 24.2772 2.83938 23.9958 2.78513 23.7244C2.73088 23.453 2.59698 23.2037 2.40033 23.008C2.20369 22.8123 1.9531 22.6791 1.68035 22.6251C1.4076 22.5711 1.12494 22.5988 0.868013 22.7047C0.611086 22.8106 0.391463 22.99 0.236962 23.22C0.0824605 23.4501 -3.05176e-05 23.7206 -3.05176e-05 23.9974C-3.05176e-05 24.3685 0.14815 24.7244 0.41184 24.9868C0.675529 25.2492 1.03314 25.3966 1.40605 25.3966Z" fill="#22C55E"/>
<path d="M77.5993 14.0922C78.3729 14.0922 79 13.4681 79 12.6983C79 11.9285 78.3729 11.3044 77.5993 11.3044C76.8256 11.3044 76.1985 11.9285 76.1985 12.6983C76.1985 13.4681 76.8256 14.0922 77.5993 14.0922Z" fill="#22C55E"/>
<path d="M64.8968 14.0922C65.6704 14.0922 66.2976 13.4681 66.2976 12.6983C66.2976 11.9285 65.6704 11.3044 64.8968 11.3044C64.1232 11.3044 63.4961 11.9285 63.4961 12.6983C63.4961 13.4681 64.1232 14.0922 64.8968 14.0922Z" fill="#22C55E"/>
<path d="M52.1997 14.0763C52.4783 14.0774 52.7509 13.9961 52.9829 13.8427C53.215 13.6894 53.396 13.4709 53.5031 13.215C53.6102 12.9591 53.6385 12.6774 53.5844 12.4055C53.5303 12.1336 53.3963 11.8838 53.1993 11.6878C53.0024 11.4918 52.7513 11.3584 52.478 11.3046C52.2048 11.2508 51.9217 11.2789 51.6645 11.3855C51.4074 11.492 51.1878 11.6722 51.0337 11.9031C50.8797 12.134 50.7979 12.4052 50.799 12.6824C50.8004 13.0517 50.9484 13.4054 51.2108 13.6665C51.4732 13.9276 51.8287 14.0749 52.1997 14.0763Z" fill="#22C55E"/>
<path d="M39.5027 14.0763C39.781 14.0763 40.053 13.9941 40.2844 13.8401C40.5157 13.6862 40.696 13.4674 40.8022 13.2114C40.9085 12.9554 40.936 12.6738 40.8813 12.4022C40.8266 12.1307 40.6922 11.8814 40.495 11.6859C40.2978 11.4904 40.0468 11.3576 39.7737 11.3042C39.5006 11.2508 39.2177 11.2793 38.9609 11.386C38.7041 11.4927 38.4849 11.6728 38.331 11.9036C38.1771 12.1344 38.0955 12.4055 38.0966 12.6824C38.0966 12.8659 38.133 13.0476 38.2037 13.2171C38.2745 13.3865 38.3781 13.5404 38.5087 13.6699C38.6394 13.7994 38.7944 13.902 38.965 13.9718C39.1355 14.0415 39.3183 14.077 39.5027 14.0763Z" fill="#22C55E"/>
<path d="M26.8003 14.0922C27.5739 14.0922 28.201 13.4681 28.201 12.6983C28.201 11.9285 27.5739 11.3044 26.8003 11.3044C26.0266 11.3044 25.3995 11.9285 25.3995 12.6983C25.3995 13.4681 26.0266 14.0922 26.8003 14.0922Z" fill="#22C55E"/>
<path d="M14.641 13.9333C15.3565 13.6406 15.6981 12.826 15.4039 12.114C15.1097 11.402 14.2912 11.0622 13.5757 11.3549C12.8602 11.6476 12.5186 12.4621 12.8128 13.1741C13.107 13.8862 13.9255 14.226 14.641 13.9333Z" fill="#22C55E"/>
<path d="M1.40606 14.0763C1.68438 14.0763 1.95643 13.9941 2.18777 13.8401C2.41911 13.6862 2.59934 13.4674 2.7056 13.2114C2.81187 12.9554 2.83944 12.6738 2.78475 12.4022C2.73007 12.1307 2.59557 11.8814 2.3984 11.6859C2.20123 11.4904 1.95022 11.3576 1.67712 11.3042C1.40403 11.2508 1.12116 11.2793 0.864331 11.386C0.607499 11.4927 0.388242 11.6728 0.234381 11.9036C0.0805196 12.1344 -0.00107077 12.4055 -2.05042e-05 12.6824C-2.18271e-05 12.8659 0.0363819 13.0476 0.107109 13.2171C0.177835 13.3865 0.281538 13.5404 0.412174 13.6699C0.542809 13.7994 0.697849 13.902 0.868411 13.9718C1.03897 14.0415 1.22167 14.077 1.40606 14.0763Z" fill="#22C55E"/>
<path d="M77.5993 2.78781C78.3729 2.78781 79 2.16374 79 1.39391C79 0.624073 78.3729 0 77.5993 0C76.8256 0 76.1985 0.624073 76.1985 1.39391C76.1985 2.16374 76.8256 2.78781 77.5993 2.78781Z" fill="#22C55E"/>
<path d="M64.8968 2.78781C65.6704 2.78781 66.2976 2.16374 66.2976 1.39391C66.2976 0.624073 65.6704 0 64.8968 0C64.1232 0 63.4961 0.624073 63.4961 1.39391C63.4961 2.16374 64.1232 2.78781 64.8968 2.78781Z" fill="#22C55E"/>
<path d="M52.1997 2.79313C52.478 2.79417 52.7504 2.71301 52.9823 2.55991C53.2143 2.4068 53.3953 2.18861 53.5026 1.93304C53.6098 1.67747 53.6384 1.39599 53.5848 1.12423C53.5311 0.852464 53.3976 0.60266 53.2012 0.406451C53.0048 0.210243 52.7542 0.0764418 52.4813 0.0220246C52.2084 -0.0323926 51.9255 -0.00499087 51.6682 0.100753C51.411 0.206497 51.1911 0.385843 51.0363 0.616051C50.8816 0.846259 50.799 1.11697 50.799 1.39393C50.7989 1.7641 50.9464 2.11919 51.2089 2.38144C51.4715 2.64368 51.8277 2.79173 52.1997 2.79313Z" fill="#22C55E"/>
<path d="M39.5027 2.79312C39.7808 2.79312 40.0526 2.71107 40.2839 2.55732C40.5151 2.40358 40.6953 2.18506 40.8017 1.9294C40.9081 1.67373 40.9359 1.39238 40.8817 1.12097C40.8274 0.849553 40.6935 0.600226 40.4969 0.404546C40.3002 0.208867 40.0497 0.0756221 39.777 0.0216342C39.5042 -0.0323537 39.2215 -0.00463587 38.9646 0.101265C38.7076 0.207166 38.4881 0.3865 38.3336 0.616595C38.1791 0.84669 38.0966 1.11719 38.0966 1.39392C38.0966 1.57767 38.1329 1.75964 38.2036 1.9294C38.2742 2.09915 38.3778 2.25338 38.5084 2.3833C38.639 2.51323 38.794 2.6163 38.9646 2.68662C39.1352 2.75693 39.318 2.79312 39.5027 2.79312Z" fill="#22C55E"/>
<path d="M26.8003 2.78781C27.5739 2.78781 28.201 2.16374 28.201 1.39391C28.201 0.624073 27.5739 0 26.8003 0C26.0266 0 25.3995 0.624073 25.3995 1.39391C25.3995 2.16374 26.0266 2.78781 26.8003 2.78781Z" fill="#22C55E"/>
<path d="M14.6402 2.62809C15.3557 2.33535 15.6973 1.52084 15.4031 0.808835C15.1089 0.096833 14.2904 -0.243021 13.5749 0.0497186C12.8594 0.342458 12.5178 1.15694 12.812 1.86894C13.1062 2.58095 13.9247 2.92083 14.6402 2.62809Z" fill="#22C55E"/>
<path d="M1.40605 2.79312C1.68415 2.79312 1.95601 2.71107 2.18724 2.55732C2.41847 2.40358 2.59865 2.18506 2.70507 1.9294C2.8115 1.67373 2.83938 1.39238 2.78513 1.12097C2.73088 0.849553 2.59698 0.600226 2.40033 0.404546C2.20369 0.208867 1.9531 0.0756221 1.68035 0.0216342C1.4076 -0.0323537 1.12494 -0.00463587 0.868013 0.101265C0.611086 0.207166 0.391463 0.3865 0.236962 0.616595C0.0824605 0.84669 -3.05176e-05 1.11719 -3.05176e-05 1.39392C-3.05176e-05 1.76501 0.14815 2.1209 0.41184 2.3833C0.675529 2.6457 1.03314 2.79312 1.40605 2.79312Z" fill="#22C55E"/>
</g>
<defs>
<clipPath id="clip0_2891_20680">
<rect width="79" height="48" fill="white"/>
</clipPath>
</defs>
</svg>
