<svg width="535" height="254" viewBox="0 0 535 254" fill="none" xmlns="http://www.w3.org/2000/svg">
<g opacity="0.8">
<path d="M575.24 236.233V237.948H498.078C498.078 252.694 480.93 264.697 459.668 264.697C438.405 264.697 421.258 252.694 421.258 237.948H344.439C344.439 252.694 327.292 264.697 306.029 264.697C284.767 264.697 267.62 252.694 267.62 237.948H190.801C190.801 252.694 173.653 264.697 152.391 264.697C131.129 264.697 113.981 252.694 113.981 237.948H36.8192C36.8192 252.694 19.6721 264.697 -1.59039 264.697C-22.8528 264.697 -40 252.694 -40 237.948H36.8192V236.233C36.8192 221.486 54.3093 209.484 75.5718 209.484C96.8342 209.484 113.981 221.486 113.981 236.233V237.948H190.801V236.233C190.801 221.486 207.948 209.484 229.21 209.484C250.473 209.484 267.62 221.486 267.62 236.233V237.948H344.439V236.233C344.439 221.486 361.586 209.484 382.849 209.484C404.111 209.484 421.258 221.486 421.258 236.233V237.948H498.078V236.233C498.078 221.486 515.568 209.484 536.83 209.484C558.093 209.484 575.24 221.486 575.24 236.233Z" fill="url(#paint0_radial_3590_19578)" fill-opacity="0.08"/>
<path d="M575.24 181.362V183.077H498.078C498.078 197.823 480.93 209.827 459.668 209.827C438.405 209.827 421.258 197.823 421.258 183.077H344.439C344.439 197.823 327.292 209.827 306.029 209.827C284.767 209.827 267.62 197.823 267.62 183.077H190.801C190.801 197.823 173.653 209.827 152.391 209.827C131.129 209.827 113.981 197.823 113.981 183.077H36.8192C36.8192 197.823 19.6721 209.827 -1.59039 209.827C-22.8528 209.827 -40 197.823 -40 183.077H36.8192V181.362C36.8192 166.616 54.3093 154.613 75.5718 154.613C96.8342 154.613 113.981 166.616 113.981 181.362V183.077H190.801V181.362C190.801 166.616 207.948 154.613 229.21 154.613C250.473 154.613 267.62 166.616 267.62 181.362V183.077H344.439V181.362C344.439 166.616 361.586 154.613 382.849 154.613C404.111 154.613 421.258 166.616 421.258 181.362V183.077H498.078V181.362C498.078 166.616 515.568 154.613 536.83 154.613C558.093 154.613 575.24 166.616 575.24 181.362Z" fill="url(#paint1_radial_3590_19578)" fill-opacity="0.08"/>
<path d="M575.24 126.491V128.206H498.078C498.078 142.953 480.93 154.956 459.668 154.956C438.405 154.956 421.258 142.953 421.258 128.206H344.439C344.439 142.953 327.292 154.956 306.029 154.956C284.767 154.956 267.62 142.953 267.62 128.206H190.801C190.801 142.953 173.653 154.956 152.391 154.956C131.129 154.956 113.981 142.953 113.981 128.206H36.8192C36.8192 142.953 19.6721 154.956 -1.59039 154.956C-22.8528 154.956 -40 142.953 -40 128.206H36.8192V126.491C36.8192 111.745 54.3093 99.7418 75.5718 99.7418C96.8342 99.7418 113.981 111.745 113.981 126.491V128.206H190.801V126.491C190.801 111.745 207.948 99.7418 229.21 99.7418C250.473 99.7418 267.62 111.745 267.62 126.491V128.206H344.439V126.491C344.439 111.745 361.586 99.7418 382.849 99.7418C404.111 99.7418 421.258 111.745 421.258 126.491V128.206H498.078V126.491C498.078 111.745 515.568 99.7418 536.83 99.7418C558.093 99.7418 575.24 111.745 575.24 126.491Z" fill="url(#paint2_radial_3590_19578)" fill-opacity="0.08"/>
<path d="M575.24 71.6204V73.3351H498.078C498.078 88.0816 480.93 100.085 459.668 100.085C438.405 100.085 421.258 88.0816 421.258 73.3351H344.439C344.439 88.0816 327.292 100.085 306.029 100.085C284.767 100.085 267.62 88.0816 267.62 73.3351H190.801C190.801 88.0816 173.653 100.085 152.391 100.085C131.129 100.085 113.981 88.0816 113.981 73.3351H36.8192C36.8192 88.0816 19.6721 100.085 -1.59039 100.085C-22.8528 100.085 -40 88.0816 -40 73.3351H36.8192V71.6204C36.8192 56.8738 54.3093 44.8708 75.5718 44.8708C96.8342 44.8708 113.981 56.8738 113.981 71.6204V73.3351H190.801V71.6204C190.801 56.8738 207.948 44.8708 229.21 44.8708C250.473 44.8708 267.62 56.8738 267.62 71.6204V73.3351H344.439V71.6204C344.439 56.8738 361.586 44.8708 382.849 44.8708C404.111 44.8708 421.258 56.8738 421.258 71.6204V73.3351H498.078V71.6204C498.078 56.8738 515.568 44.8708 536.83 44.8708C558.093 44.8708 575.24 56.8738 575.24 71.6204Z" fill="url(#paint3_radial_3590_19578)" fill-opacity="0.08"/>
<path d="M575.24 16.7495V18.4642H498.078C498.078 33.2108 480.93 45.2138 459.668 45.2138C438.405 45.2138 421.258 33.2108 421.258 18.4642H344.439C344.439 33.2108 327.292 45.2138 306.029 45.2138C284.767 45.2138 267.62 33.2108 267.62 18.4642H190.801C190.801 33.2108 173.653 45.2138 152.391 45.2138C131.129 45.2138 113.981 33.2108 113.981 18.4642H36.8192C36.8192 33.2108 19.6721 45.2138 -1.59039 45.2138C-22.8528 45.2138 -40 33.2108 -40 18.4642H36.8192V16.7495C36.8192 2.00296 54.3093 -10 75.5718 -10C96.8342 -10 113.981 2.00296 113.981 16.7495V18.4642H190.801V16.7495C190.801 2.00296 207.948 -10 229.21 -10C250.473 -10 267.62 2.00296 267.62 16.7495V18.4642H344.439V16.7495C344.439 2.00296 361.586 -10 382.849 -10C404.111 -10 421.258 2.00296 421.258 16.7495V18.4642H498.078V16.7495C498.078 2.00296 515.568 -10 536.83 -10C558.093 -10 575.24 2.00296 575.24 16.7495Z" fill="url(#paint4_radial_3590_19578)" fill-opacity="0.08"/>
</g>
<defs>
<radialGradient id="paint0_radial_3590_19578" cx="0" cy="0" r="1" gradientUnits="userSpaceOnUse" gradientTransform="translate(267.62 237.09) rotate(90) scale(27.6069 307.62)">
<stop/>
<stop offset="1" stop-opacity="0"/>
</radialGradient>
<radialGradient id="paint1_radial_3590_19578" cx="0" cy="0" r="1" gradientUnits="userSpaceOnUse" gradientTransform="translate(267.62 182.22) rotate(90) scale(27.6069 307.62)">
<stop/>
<stop offset="1" stop-opacity="0"/>
</radialGradient>
<radialGradient id="paint2_radial_3590_19578" cx="0" cy="0" r="1" gradientUnits="userSpaceOnUse" gradientTransform="translate(267.62 127.349) rotate(90) scale(27.6069 307.62)">
<stop/>
<stop offset="1" stop-opacity="0"/>
</radialGradient>
<radialGradient id="paint3_radial_3590_19578" cx="0" cy="0" r="1" gradientUnits="userSpaceOnUse" gradientTransform="translate(267.62 72.4778) rotate(90) scale(27.6069 307.62)">
<stop/>
<stop offset="1" stop-opacity="0"/>
</radialGradient>
<radialGradient id="paint4_radial_3590_19578" cx="0" cy="0" r="1" gradientUnits="userSpaceOnUse" gradientTransform="translate(267.62 17.6069) rotate(90) scale(27.6069 307.62)">
<stop/>
<stop offset="1" stop-opacity="0"/>
</radialGradient>
</defs>
</svg>
